<?xml version="1.0" encoding="UTF-8" standalone="no"?>
<svg
   width="24"
   height="26"
   viewBox="0 0 24 26"
   fill="none"
   version="1.1"
   id="svg1"
   sodipodi:docname="arrow.svg"
   inkscape:version="1.4.2 (f4327f4, 2025-05-13)"
   xmlns:inkscape="http://www.inkscape.org/namespaces/inkscape"
   xmlns:sodipodi="http://sodipodi.sourceforge.net/DTD/sodipodi-0.dtd"
   xmlns="http://www.w3.org/2000/svg"
   xmlns:svg="http://www.w3.org/2000/svg">
  <defs
     id="defs1" />
  <sodipodi:namedview
     id="namedview1"
     pagecolor="#505050"
     bordercolor="#eeeeee"
     borderopacity="1"
     inkscape:showpageshadow="0"
     inkscape:pageopacity="0"
     inkscape:pagecheckerboard="0"
     inkscape:deskcolor="#505050"
     inkscape:zoom="33.560376"
     inkscape:cx="13.721539"
     inkscape:cy="10.399168"
     inkscape:window-width="2560"
     inkscape:window-height="1377"
     inkscape:window-x="1912"
     inkscape:window-y="-192"
     inkscape:window-maximized="1"
     inkscape:current-layer="svg1" />
  <path
     d="M22.7004 12.2833L16.1535 5.79682C15.7541 5.40106 15.1063 5.40106 14.7068 5.79682C14.3073 6.19266 14.3073 6.83433 14.7068 7.23017L19.5074 11.9865H2.02294C1.45803 11.9865 1 12.4403 1 13C1 13.5596 1.45803 14.0135 2.02294 14.0135H19.5074L14.707 18.7698C14.3075 19.1656 14.3075 19.8073 14.707 20.2032C14.9067 20.4009 15.1686 20.5 15.4304 20.5C15.6921 20.5 15.9539 20.4009 16.1537 20.2032L22.7004 13.7167C23.0999 13.3208 23.0999 12.6792 22.7004 12.2833Z"
     fill="#286562"
     id="path1"
     style="fill:#ffffff;fill-opacity:1" />
</svg>
